<svg xmlns="http://www.w3.org/2000/svg" width="18" height="18" viewBox="0 0 24 24" fill="none" stroke="#ef4957" stroke-width="1" stroke-linecap="round" stroke-linejoin="round">
  <path d="M 12.75 2.75 V 4.5 h 1.975 c 0.351 0 0.694 0.106 0.984 0.303 l 1.697 1.154 c 0.041 0.028 0.09 0.043 0.14 0.043 h 4.102 a 0.75 0.75 0 0 1 0 1.5 H 20.07 l 3.366 7.68 a 0.749 0.749 0 0 1 -0.23 0.896 c -0.1 0.074 -0.203 0.143 -0.31 0.206 a 6.296 6.296 0 0 1 -0.79 0.399 a 7.349 7.349 0 0 1 -2.856 0.569 a 7.343 7.343 0 0 1 -2.855 -0.568 a 6.205 6.205 0 0 1 -0.79 -0.4 a 3.205 3.205 0 0 1 -0.307 -0.202 l -0.005 -0.004 a 0.749 0.749 0 0 1 -0.23 -0.896 l 3.368 -7.68 h -0.886 c -0.351 0 -0.694 -0.106 -0.984 -0.303 l -1.697 -1.154 a 0.246 0.246 0 0 0 -0.14 -0.043 H 12.75 v 14.5 h 4.487 a 0.75 0.75 0 0 1 0 1.5 H 6.763 a 0.75 0.75 0 0 1 0 -1.5 h 4.487 V 6 H 9.275 a 0.249 0.249 0 0 0 -0.14 0.043 L 7.439 7.197 c -0.29 0.197 -0.633 0.303 -0.984 0.303 h -0.886 l 3.368 7.68 a 0.75 0.75 0 0 1 -0.209 0.878 c -0.08 0.065 -0.16 0.126 -0.31 0.223 a 6.077 6.077 0 0 1 -0.792 0.433 a 6.924 6.924 0 0 1 -2.876 0.62 a 6.913 6.913 0 0 1 -2.876 -0.62 a 6.077 6.077 0 0 1 -0.792 -0.433 a 3.483 3.483 0 0 1 -0.309 -0.221 a 0.762 0.762 0 0 1 -0.21 -0.88 L 3.93 7.5 H 2.353 a 0.75 0.75 0 0 1 0 -1.5 h 4.102 c 0.05 0 0.099 -0.015 0.141 -0.043 l 1.695 -1.154 c 0.29 -0.198 0.634 -0.303 0.985 -0.303 h 1.974 V 2.75 a 0.75 0.75 0 0 1 1.5 0 Z M 2.193 15.198 a 5.414 5.414 0 0 0 2.557 0.635 a 5.414 5.414 0 0 0 2.557 -0.635 L 4.75 9.368 Z m 14.51 -0.024 c 0.082 0.04 0.174 0.083 0.275 0.126 c 0.53 0.223 1.305 0.45 2.272 0.45 a 5.847 5.847 0 0 0 2.547 -0.576 L 19.25 9.367 Z"/>
</svg>
